<svg width="134pt" height="249pt" viewBox="0.00 0.00 134.00 248.80" xmlns="http://www.w3.org/2000/svg" xmlns:xlink="http://www.w3.org/1999/xlink">
<g id="graph0" class="graph" transform="scale(1 1) rotate(0) translate(4 244.8)">
<polygon fill="white" stroke="none" points="-4,4 -4,-244.8 130,-244.8 130,4 -4,4"/>
<!-- 2 -->
<g id="node1" class="node">
<title>2</title>
<polygon fill="none" stroke="black" points="54,-36 0,-36 0,0 54,0 54,-36"/>
<text text-anchor="middle" x="27" y="-13.8" font-family="Times,serif" font-size="14.00">i2</text>
</g>
<!-- 6 -->
<g id="node3" class="node">
<title>6</title>
<ellipse fill="none" stroke="black" cx="90" cy="-90" rx="18" ry="18"/>
</g>
<!-- 2&#45;&gt;6 -->
<g id="edge4" class="edge">
<title>2-&gt;6</title>
<path fill="none" stroke="black" d="M42.57,-36.3C52.61,-47.46 65.58,-61.87 75.42,-72.8"/>
<polygon fill="black" stroke="black" points="74.56,-73.42 77.35,-74.94 76.12,-72.01 74.56,-73.42"/>
</g>
<!-- 7 -->
<g id="node5" class="node">
<title>7</title>
<ellipse fill="none" stroke="black" cx="36" cy="-90" rx="18" ry="18"/>
</g>
<!-- 2&#45;&gt;7 -->
<g id="edge8" class="edge">
<title>2-&gt;7</title>
<path fill="none" stroke="black" d="M29.22,-36.3C30.43,-45.71 31.94,-57.44 33.23,-67.44"/>
<polygon fill="black" stroke="black" points="32.18,-67.55 33.61,-70.39 34.27,-67.29 32.18,-67.55"/>
<text text-anchor="middle" x="31.89" y="-52.82" font-family="Times,serif" font-size="14.00">●</text>
</g>
<!-- 1 -->
<g id="node2" class="node">
<title>1</title>
<polygon fill="none" stroke="black" points="126,-36 72,-36 72,0 126,0 126,-36"/>
<text text-anchor="middle" x="99" y="-13.8" font-family="Times,serif" font-size="14.00">i1</text>
</g>
<!-- 1&#45;&gt;6 -->
<g id="edge3" class="edge">
<title>1-&gt;6</title>
<path fill="none" stroke="black" d="M96.78,-36.3C95.57,-45.71 94.06,-57.44 92.77,-67.44"/>
<polygon fill="black" stroke="black" points="91.73,-67.29 92.39,-70.39 93.82,-67.55 91.73,-67.29"/>
</g>
<!-- 1&#45;&gt;7 -->
<g id="edge7" class="edge">
<title>1-&gt;7</title>
<path fill="none" stroke="black" d="M83.43,-36.3C73.39,-47.46 60.42,-61.87 50.58,-72.8"/>
<polygon fill="black" stroke="black" points="49.88,-72.01 48.65,-74.94 51.44,-73.42 49.88,-72.01"/>
<text text-anchor="middle" x="57.67" y="-60.72" font-family="Times,serif" font-size="14.00">●</text>
</g>
<!-- 3 -->
<g id="node4" class="node">
<title>3</title>
<ellipse fill="none" stroke="black" cx="38" cy="-162" rx="18" ry="18"/>
</g>
<!-- 6&#45;&gt;3 -->
<g id="edge5" class="edge">
<title>6-&gt;3</title>
<path fill="none" stroke="black" d="M79.48,-105.17C71.3,-116.17 59.91,-131.5 51.14,-143.31"/>
<polygon fill="black" stroke="black" points="50.36,-142.61 49.41,-145.64 52.04,-143.86 50.36,-142.61"/>
<text text-anchor="middle" x="57.45" y="-130.61" font-family="Times,serif" font-size="14.00">●</text>
</g>
<!-- o6false -->
<g id="node7" class="node">
<title>o6false</title>
<text text-anchor="middle" x="90" y="-157.8" font-family="Times,serif" font-size="14.00">o2</text>
</g>
<!-- 6&#45;&gt;o6false -->
<g id="edge2" class="edge">
<title>6-&gt;o6false</title>
<path fill="none" stroke="black" d="M90,-108.3C90,-121.26 90,-138.6 90,-149.79"/>
</g>
<!-- o3false -->
<g id="node6" class="node">
<title>o3false</title>
<text text-anchor="middle" x="38" y="-224.2" font-family="Times,serif" font-size="14.00">o1</text>
</g>
<!-- 3&#45;&gt;o3false -->
<g id="edge1" class="edge">
<title>3-&gt;o3false</title>
<path fill="none" stroke="black" d="M38,-180.26C38,-191.73 38,-206.46 38,-216.38"/>
</g>
<!-- 7&#45;&gt;3 -->
<g id="edge6" class="edge">
<title>7-&gt;3</title>
<path fill="none" stroke="black" d="M36.49,-108.3C36.76,-117.71 37.1,-129.44 37.38,-139.44"/>
<polygon fill="black" stroke="black" points="36.33,-139.41 37.47,-142.38 38.43,-139.35 36.33,-139.41"/>
<text text-anchor="middle" x="37.08" y="-124.7" font-family="Times,serif" font-size="14.00">●</text>
</g>
</g>
</svg>